<svg width="49" height="45" viewBox="0 0 49 45" fill="none" xmlns="http://www.w3.org/2000/svg">
<g clip-path="url(#clip0_58_1081)">
<path d="M26.1666 0C23.5144 0 20.9709 1.05357 19.0955 2.92893C17.2202 4.80429 16.1666 7.34783 16.1666 10H12.8333L17.1555 14.3222L17.2332 14.4778L21.7221 10H18.3888C18.3888 5.7 21.8666 2.22222 26.1666 2.22222C30.4666 2.22222 33.9444 5.7 33.9444 10C33.9444 14.3 30.4666 17.7778 26.1666 17.7778C24.0221 17.7778 22.0777 16.9 20.6777 15.4889L19.0999 17.0667C20.0259 17.9978 21.1271 18.7364 22.34 19.2398C23.5528 19.7433 24.8534 20.0016 26.1666 20C28.8187 20 31.3623 18.9464 33.2376 17.0711C35.113 15.1957 36.1666 12.6522 36.1666 10C36.1666 7.34783 35.113 4.80429 33.2376 2.92893C31.3623 1.05357 28.8187 3.95203e-08 26.1666 0V0ZM25.0555 5.55555V11.1111L29.7777 13.9111L30.6332 12.4889L26.7221 10.1667V5.55555H25.0555Z" fill="url(#paint0_linear_58_1081)"/>
</g>
<path d="M9.28643 29.242V39H8.01243V34.576H3.04243V39H1.76843V29.242H3.04243V33.526H8.01243V29.242H9.28643ZM12.1198 30.082C11.8771 30.082 11.6718 29.998 11.5038 29.83C11.3358 29.662 11.2518 29.4567 11.2518 29.214C11.2518 28.9713 11.3358 28.766 11.5038 28.598C11.6718 28.43 11.8771 28.346 12.1198 28.346C12.3531 28.346 12.5491 28.43 12.7078 28.598C12.8758 28.766 12.9598 28.9713 12.9598 29.214C12.9598 29.4567 12.8758 29.662 12.7078 29.83C12.5491 29.998 12.3531 30.082 12.1198 30.082ZM12.7358 31.328V39H11.4618V31.328H12.7358ZM17.6231 39.126C17.0351 39.126 16.5078 39.028 16.0411 38.832C15.5744 38.6267 15.2058 38.3467 14.9351 37.992C14.6644 37.628 14.5151 37.2127 14.4871 36.746H15.8031C15.8404 37.1287 16.0178 37.4413 16.3351 37.684C16.6618 37.9267 17.0864 38.048 17.6091 38.048C18.0944 38.048 18.4771 37.9407 18.7571 37.726C19.0371 37.5113 19.1771 37.2407 19.1771 36.914C19.1771 36.578 19.0278 36.3307 18.7291 36.172C18.4304 36.004 17.9684 35.8407 17.3431 35.682C16.7738 35.5327 16.3071 35.3833 15.9431 35.234C15.5884 35.0753 15.2804 34.8467 15.0191 34.548C14.7671 34.24 14.6411 33.8387 14.6411 33.344C14.6411 32.952 14.7578 32.5927 14.9911 32.266C15.2244 31.9393 15.5558 31.6827 15.9851 31.496C16.4144 31.3 16.9044 31.202 17.4551 31.202C18.3044 31.202 18.9904 31.4167 19.5131 31.846C20.0358 32.2753 20.3158 32.8633 20.3531 33.61H19.0791C19.0511 33.2087 18.8878 32.8867 18.5891 32.644C18.2998 32.4013 17.9078 32.28 17.4131 32.28C16.9558 32.28 16.5918 32.378 16.3211 32.574C16.0504 32.77 15.9151 33.0267 15.9151 33.344C15.9151 33.596 15.9944 33.806 16.1531 33.974C16.3211 34.1327 16.5264 34.2633 16.7691 34.366C17.0211 34.4593 17.3664 34.5667 17.8051 34.688C18.3558 34.8373 18.8038 34.9867 19.1491 35.136C19.4944 35.276 19.7884 35.4907 20.0311 35.78C20.2831 36.0693 20.4138 36.4473 20.4231 36.914C20.4231 37.334 20.3064 37.712 20.0731 38.048C19.8398 38.384 19.5084 38.65 19.0791 38.846C18.6591 39.0327 18.1738 39.126 17.6231 39.126ZM23.7756 32.378V36.9C23.7756 37.2733 23.8549 37.5393 24.0136 37.698C24.1722 37.8473 24.4476 37.922 24.8396 37.922H25.7776V39H24.6296C23.9202 39 23.3882 38.8367 23.0336 38.51C22.6789 38.1833 22.5016 37.6467 22.5016 36.9V32.378H21.5076V31.328H22.5016V29.396H23.7756V31.328H25.7776V32.378H23.7756ZM30.6672 39.126C29.9485 39.126 29.2952 38.9627 28.7072 38.636C28.1285 38.3093 27.6712 37.8473 27.3352 37.25C27.0085 36.6433 26.8452 35.9433 26.8452 35.15C26.8452 34.366 27.0132 33.6753 27.3492 33.078C27.6945 32.4713 28.1612 32.0093 28.7492 31.692C29.3372 31.3653 29.9952 31.202 30.7232 31.202C31.4512 31.202 32.1092 31.3653 32.6972 31.692C33.2852 32.0093 33.7472 32.4667 34.0832 33.064C34.4285 33.6613 34.6012 34.3567 34.6012 35.15C34.6012 35.9433 34.4238 36.6433 34.0692 37.25C33.7238 37.8473 33.2525 38.3093 32.6552 38.636C32.0578 38.9627 31.3952 39.126 30.6672 39.126ZM30.6672 38.006C31.1245 38.006 31.5538 37.8987 31.9552 37.684C32.3565 37.4693 32.6785 37.1473 32.9212 36.718C33.1732 36.2887 33.2992 35.766 33.2992 35.15C33.2992 34.534 33.1778 34.0113 32.9352 33.582C32.6925 33.1527 32.3752 32.8353 31.9832 32.63C31.5912 32.4153 31.1665 32.308 30.7092 32.308C30.2425 32.308 29.8132 32.4153 29.4212 32.63C29.0385 32.8353 28.7305 33.1527 28.4972 33.582C28.2638 34.0113 28.1472 34.534 28.1472 35.15C28.1472 35.7753 28.2592 36.3027 28.4832 36.732C28.7165 37.1613 29.0245 37.4833 29.4072 37.698C29.7898 37.9033 30.2098 38.006 30.6672 38.006ZM37.5502 32.574C37.7742 32.1353 38.0916 31.7947 38.5022 31.552C38.9222 31.3093 39.4309 31.188 40.0282 31.188V32.504H39.6922C38.2642 32.504 37.5502 33.2787 37.5502 34.828V39H36.2762V31.328H37.5502V32.574ZM48.1069 31.328L43.4869 42.612H42.1709L43.6829 38.916L40.5889 31.328H42.0029L44.4109 37.544L46.7909 31.328H48.1069Z" fill="url(#paint1_linear_58_1081)"/>
<path d="M9.28643 29.242V39H8.01243V34.576H3.04243V39H1.76843V29.242H3.04243V33.526H8.01243V29.242H9.28643ZM12.1198 30.082C11.8771 30.082 11.6718 29.998 11.5038 29.83C11.3358 29.662 11.2518 29.4567 11.2518 29.214C11.2518 28.9713 11.3358 28.766 11.5038 28.598C11.6718 28.43 11.8771 28.346 12.1198 28.346C12.3531 28.346 12.5491 28.43 12.7078 28.598C12.8758 28.766 12.9598 28.9713 12.9598 29.214C12.9598 29.4567 12.8758 29.662 12.7078 29.83C12.5491 29.998 12.3531 30.082 12.1198 30.082ZM12.7358 31.328V39H11.4618V31.328H12.7358ZM17.6231 39.126C17.0351 39.126 16.5078 39.028 16.0411 38.832C15.5744 38.6267 15.2058 38.3467 14.9351 37.992C14.6644 37.628 14.5151 37.2127 14.4871 36.746H15.8031C15.8404 37.1287 16.0178 37.4413 16.3351 37.684C16.6618 37.9267 17.0864 38.048 17.6091 38.048C18.0944 38.048 18.4771 37.9407 18.7571 37.726C19.0371 37.5113 19.1771 37.2407 19.1771 36.914C19.1771 36.578 19.0278 36.3307 18.7291 36.172C18.4304 36.004 17.9684 35.8407 17.3431 35.682C16.7738 35.5327 16.3071 35.3833 15.9431 35.234C15.5884 35.0753 15.2804 34.8467 15.0191 34.548C14.7671 34.24 14.6411 33.8387 14.6411 33.344C14.6411 32.952 14.7578 32.5927 14.9911 32.266C15.2244 31.9393 15.5558 31.6827 15.9851 31.496C16.4144 31.3 16.9044 31.202 17.4551 31.202C18.3044 31.202 18.9904 31.4167 19.5131 31.846C20.0358 32.2753 20.3158 32.8633 20.3531 33.61H19.0791C19.0511 33.2087 18.8878 32.8867 18.5891 32.644C18.2998 32.4013 17.9078 32.28 17.4131 32.28C16.9558 32.28 16.5918 32.378 16.3211 32.574C16.0504 32.77 15.9151 33.0267 15.9151 33.344C15.9151 33.596 15.9944 33.806 16.1531 33.974C16.3211 34.1327 16.5264 34.2633 16.7691 34.366C17.0211 34.4593 17.3664 34.5667 17.8051 34.688C18.3558 34.8373 18.8038 34.9867 19.1491 35.136C19.4944 35.276 19.7884 35.4907 20.0311 35.78C20.2831 36.0693 20.4138 36.4473 20.4231 36.914C20.4231 37.334 20.3064 37.712 20.0731 38.048C19.8398 38.384 19.5084 38.65 19.0791 38.846C18.6591 39.0327 18.1738 39.126 17.6231 39.126ZM23.7756 32.378V36.9C23.7756 37.2733 23.8549 37.5393 24.0136 37.698C24.1722 37.8473 24.4476 37.922 24.8396 37.922H25.7776V39H24.6296C23.9202 39 23.3882 38.8367 23.0336 38.51C22.6789 38.1833 22.5016 37.6467 22.5016 36.9V32.378H21.5076V31.328H22.5016V29.396H23.7756V31.328H25.7776V32.378H23.7756ZM30.6672 39.126C29.9485 39.126 29.2952 38.9627 28.7072 38.636C28.1285 38.3093 27.6712 37.8473 27.3352 37.25C27.0085 36.6433 26.8452 35.9433 26.8452 35.15C26.8452 34.366 27.0132 33.6753 27.3492 33.078C27.6945 32.4713 28.1612 32.0093 28.7492 31.692C29.3372 31.3653 29.9952 31.202 30.7232 31.202C31.4512 31.202 32.1092 31.3653 32.6972 31.692C33.2852 32.0093 33.7472 32.4667 34.0832 33.064C34.4285 33.6613 34.6012 34.3567 34.6012 35.15C34.6012 35.9433 34.4238 36.6433 34.0692 37.25C33.7238 37.8473 33.2525 38.3093 32.6552 38.636C32.0578 38.9627 31.3952 39.126 30.6672 39.126ZM30.6672 38.006C31.1245 38.006 31.5538 37.8987 31.9552 37.684C32.3565 37.4693 32.6785 37.1473 32.9212 36.718C33.1732 36.2887 33.2992 35.766 33.2992 35.15C33.2992 34.534 33.1778 34.0113 32.9352 33.582C32.6925 33.1527 32.3752 32.8353 31.9832 32.63C31.5912 32.4153 31.1665 32.308 30.7092 32.308C30.2425 32.308 29.8132 32.4153 29.4212 32.63C29.0385 32.8353 28.7305 33.1527 28.4972 33.582C28.2638 34.0113 28.1472 34.534 28.1472 35.15C28.1472 35.7753 28.2592 36.3027 28.4832 36.732C28.7165 37.1613 29.0245 37.4833 29.4072 37.698C29.7898 37.9033 30.2098 38.006 30.6672 38.006ZM37.5502 32.574C37.7742 32.1353 38.0916 31.7947 38.5022 31.552C38.9222 31.3093 39.4309 31.188 40.0282 31.188V32.504H39.6922C38.2642 32.504 37.5502 33.2787 37.5502 34.828V39H36.2762V31.328H37.5502V32.574ZM48.1069 31.328L43.4869 42.612H42.1709L43.6829 38.916L40.5889 31.328H42.0029L44.4109 37.544L46.7909 31.328H48.1069Z" fill="url(#paint2_linear_58_1081)"/>
<defs>
<linearGradient id="paint0_linear_58_1081" x1="12.8778" y1="10" x2="36.2111" y2="10" gradientUnits="userSpaceOnUse">
<stop stop-color="#E9B873"/>
<stop offset="0.369792" stop-color="#FEDD8F"/>
<stop offset="1" stop-color="#B78D51"/>
</linearGradient>
<linearGradient id="paint1_linear_58_1081" x1="0.591603" y1="34.5" x2="48.5916" y2="34.5" gradientUnits="userSpaceOnUse">
<stop stop-color="#E9B873"/>
<stop offset="0.369792" stop-color="#FEDD8F"/>
<stop offset="1" stop-color="#B78D51"/>
</linearGradient>
<linearGradient id="paint2_linear_58_1081" x1="0.591603" y1="34.5" x2="48.5916" y2="34.5" gradientUnits="userSpaceOnUse">
<stop stop-color="#E9B873"/>
<stop offset="0.369792" stop-color="#FEDD8F"/>
<stop offset="1" stop-color="#B78D51"/>
</linearGradient>
<clipPath id="clip0_58_1081">
<rect width="25" height="20" fill="white" transform="translate(12)"/>
</clipPath>
</defs>
</svg>
