<svg width="40" height="45" viewBox="0 0 40 45" fill="none" xmlns="http://www.w3.org/2000/svg">
<g clip-path="url(#clip0_58_1089)">
<path d="M20.0001 0L7.77783 6.66667L12.2223 9.08889V15.7556L20.0001 20L27.7778 15.7556V9.08889L30.0001 7.87778V15.5556H32.2223V6.66667L20.0001 0ZM27.5778 6.66667L20.0001 10.8L12.4223 6.66667L20.0001 2.53333L27.5778 6.66667ZM25.5556 14.4444L20.0001 17.4667L14.4445 14.4444V10.3L20.0001 13.3333L25.5556 10.3V14.4444Z" fill="#8B8682"/>
<path d="M20.0001 0L7.77783 6.66667L12.2223 9.08889V15.7556L20.0001 20L27.7778 15.7556V9.08889L30.0001 7.87778V15.5556H32.2223V6.66667L20.0001 0ZM27.5778 6.66667L20.0001 10.8L12.4223 6.66667L20.0001 2.53333L27.5778 6.66667ZM25.5556 14.4444L20.0001 17.4667L14.4445 14.4444V10.3L20.0001 13.3333L25.5556 10.3V14.4444Z" fill="url(#paint0_linear_58_1089)"/>
</g>
<path d="M3.17036 37.964H6.58636V39H1.89636V29.242H3.17036V37.964ZM14.9393 34.87C14.9393 35.1127 14.9253 35.3693 14.8973 35.64H8.76533C8.81199 36.396 9.06866 36.9887 9.53533 37.418C10.0113 37.838 10.5853 38.048 11.2573 38.048C11.808 38.048 12.2653 37.922 12.6293 37.67C13.0027 37.4087 13.264 37.0633 13.4133 36.634H14.7853C14.58 37.3713 14.1693 37.9733 13.5533 38.44C12.9373 38.8973 12.172 39.126 11.2573 39.126C10.5293 39.126 9.87599 38.9627 9.29733 38.636C8.72799 38.3093 8.27999 37.8473 7.95333 37.25C7.62666 36.6433 7.46333 35.9433 7.46333 35.15C7.46333 34.3567 7.62199 33.6613 7.93933 33.064C8.25666 32.4667 8.69999 32.0093 9.26933 31.692C9.84799 31.3653 10.5107 31.202 11.2573 31.202C11.9853 31.202 12.6293 31.3607 13.1893 31.678C13.7493 31.9953 14.1787 32.434 14.4773 32.994C14.7853 33.5447 14.9393 34.17 14.9393 34.87ZM13.6233 34.604C13.6233 34.1187 13.516 33.7033 13.3013 33.358C13.0867 33.0033 12.7927 32.7373 12.4193 32.56C12.0553 32.3733 11.6493 32.28 11.2013 32.28C10.5573 32.28 10.0067 32.4853 9.54933 32.896C9.10133 33.3067 8.84466 33.876 8.77933 34.604H13.6233ZM16.145 35.136C16.145 34.352 16.3036 33.666 16.621 33.078C16.9383 32.4807 17.3723 32.0187 17.923 31.692C18.483 31.3653 19.1036 31.202 19.785 31.202C20.457 31.202 21.0403 31.3467 21.535 31.636C22.0296 31.9253 22.3983 32.2893 22.641 32.728V31.328H23.929V39H22.641V37.572C22.389 38.02 22.011 38.3933 21.507 38.692C21.0123 38.9813 20.4336 39.126 19.771 39.126C19.0896 39.126 18.4736 38.958 17.923 38.622C17.3723 38.286 16.9383 37.8147 16.621 37.208C16.3036 36.6013 16.145 35.9107 16.145 35.136ZM22.641 35.15C22.641 34.5713 22.5243 34.0673 22.291 33.638C22.0576 33.2087 21.7403 32.882 21.339 32.658C20.947 32.4247 20.513 32.308 20.037 32.308C19.561 32.308 19.127 32.42 18.735 32.644C18.343 32.868 18.0303 33.1947 17.797 33.624C17.5636 34.0533 17.447 34.5573 17.447 35.136C17.447 35.724 17.5636 36.2373 17.797 36.676C18.0303 37.1053 18.343 37.4367 18.735 37.67C19.127 37.894 19.561 38.006 20.037 38.006C20.513 38.006 20.947 37.894 21.339 37.67C21.7403 37.4367 22.0576 37.1053 22.291 36.676C22.5243 36.2373 22.641 35.7287 22.641 35.15ZM27.3559 32.574C27.5799 32.1353 27.8972 31.7947 28.3079 31.552C28.7279 31.3093 29.2366 31.188 29.8339 31.188V32.504H29.4979C28.0699 32.504 27.3559 33.2787 27.3559 34.828V39H26.0819V31.328H27.3559V32.574ZM35.0426 31.188C35.9759 31.188 36.7319 31.4727 37.3106 32.042C37.8892 32.602 38.1786 33.414 38.1786 34.478V39H36.9186V34.66C36.9186 33.8947 36.7272 33.3113 36.3446 32.91C35.9619 32.4993 35.4392 32.294 34.7766 32.294C34.1046 32.294 33.5679 32.504 33.1666 32.924C32.7746 33.344 32.5786 33.9553 32.5786 34.758V39H31.3046V31.328H32.5786V32.42C32.8306 32.028 33.1712 31.7247 33.6006 31.51C34.0392 31.2953 34.5199 31.188 35.0426 31.188Z" fill="#8B8682"/>
<path d="M3.17036 37.964H6.58636V39H1.89636V29.242H3.17036V37.964ZM14.9393 34.87C14.9393 35.1127 14.9253 35.3693 14.8973 35.64H8.76533C8.81199 36.396 9.06866 36.9887 9.53533 37.418C10.0113 37.838 10.5853 38.048 11.2573 38.048C11.808 38.048 12.2653 37.922 12.6293 37.67C13.0027 37.4087 13.264 37.0633 13.4133 36.634H14.7853C14.58 37.3713 14.1693 37.9733 13.5533 38.44C12.9373 38.8973 12.172 39.126 11.2573 39.126C10.5293 39.126 9.87599 38.9627 9.29733 38.636C8.72799 38.3093 8.27999 37.8473 7.95333 37.25C7.62666 36.6433 7.46333 35.9433 7.46333 35.15C7.46333 34.3567 7.62199 33.6613 7.93933 33.064C8.25666 32.4667 8.69999 32.0093 9.26933 31.692C9.84799 31.3653 10.5107 31.202 11.2573 31.202C11.9853 31.202 12.6293 31.3607 13.1893 31.678C13.7493 31.9953 14.1787 32.434 14.4773 32.994C14.7853 33.5447 14.9393 34.17 14.9393 34.87ZM13.6233 34.604C13.6233 34.1187 13.516 33.7033 13.3013 33.358C13.0867 33.0033 12.7927 32.7373 12.4193 32.56C12.0553 32.3733 11.6493 32.28 11.2013 32.28C10.5573 32.28 10.0067 32.4853 9.54933 32.896C9.10133 33.3067 8.84466 33.876 8.77933 34.604H13.6233ZM16.145 35.136C16.145 34.352 16.3036 33.666 16.621 33.078C16.9383 32.4807 17.3723 32.0187 17.923 31.692C18.483 31.3653 19.1036 31.202 19.785 31.202C20.457 31.202 21.0403 31.3467 21.535 31.636C22.0296 31.9253 22.3983 32.2893 22.641 32.728V31.328H23.929V39H22.641V37.572C22.389 38.02 22.011 38.3933 21.507 38.692C21.0123 38.9813 20.4336 39.126 19.771 39.126C19.0896 39.126 18.4736 38.958 17.923 38.622C17.3723 38.286 16.9383 37.8147 16.621 37.208C16.3036 36.6013 16.145 35.9107 16.145 35.136ZM22.641 35.15C22.641 34.5713 22.5243 34.0673 22.291 33.638C22.0576 33.2087 21.7403 32.882 21.339 32.658C20.947 32.4247 20.513 32.308 20.037 32.308C19.561 32.308 19.127 32.42 18.735 32.644C18.343 32.868 18.0303 33.1947 17.797 33.624C17.5636 34.0533 17.447 34.5573 17.447 35.136C17.447 35.724 17.5636 36.2373 17.797 36.676C18.0303 37.1053 18.343 37.4367 18.735 37.67C19.127 37.894 19.561 38.006 20.037 38.006C20.513 38.006 20.947 37.894 21.339 37.67C21.7403 37.4367 22.0576 37.1053 22.291 36.676C22.5243 36.2373 22.641 35.7287 22.641 35.15ZM27.3559 32.574C27.5799 32.1353 27.8972 31.7947 28.3079 31.552C28.7279 31.3093 29.2366 31.188 29.8339 31.188V32.504H29.4979C28.0699 32.504 27.3559 33.2787 27.3559 34.828V39H26.0819V31.328H27.3559V32.574ZM35.0426 31.188C35.9759 31.188 36.7319 31.4727 37.3106 32.042C37.8892 32.602 38.1786 33.414 38.1786 34.478V39H36.9186V34.66C36.9186 33.8947 36.7272 33.3113 36.3446 32.91C35.9619 32.4993 35.4392 32.294 34.7766 32.294C34.1046 32.294 33.5679 32.504 33.1666 32.924C32.7746 33.344 32.5786 33.9553 32.5786 34.758V39H31.3046V31.328H32.5786V32.42C32.8306 32.028 33.1712 31.7247 33.6006 31.51C34.0392 31.2953 34.5199 31.188 35.0426 31.188Z" fill="url(#paint1_linear_58_1089)"/>
<defs>
<linearGradient id="paint0_linear_58_1089" x1="7.82448" y1="10" x2="32.2689" y2="10" gradientUnits="userSpaceOnUse">
<stop stop-color="#E9B873"/>
<stop offset="0.369792" stop-color="#FEDD8F"/>
<stop offset="1" stop-color="#B78D51"/>
</linearGradient>
<linearGradient id="paint1_linear_58_1089" x1="0.574428" y1="34.5" x2="39.5744" y2="34.5" gradientUnits="userSpaceOnUse">
<stop stop-color="#E9B873"/>
<stop offset="0.369792" stop-color="#FEDD8F"/>
<stop offset="1" stop-color="#B78D51"/>
</linearGradient>
<clipPath id="clip0_58_1089">
<rect width="25" height="20" fill="white" transform="translate(7.5)"/>
</clipPath>
</defs>
</svg>
