<svg width="57" height="45" viewBox="0 0 57 45" fill="none" xmlns="http://www.w3.org/2000/svg">
<path d="M25.1667 15.5556H22.9445V7.77778H25.1667V15.5556ZM29.6111 15.5556H27.3889V4.44444H29.6111V15.5556ZM34.0556 15.5556H31.8333V11.1111H34.0556V15.5556ZM36.8333 17.8889H20.1667V2.22222H36.8333V17.8889ZM36.8333 0H20.1667C18.9445 0 17.9445 1 17.9445 2.22222V17.7778C17.9445 19 18.9445 20 20.1667 20H36.8333C38.0556 20 39.0556 19 39.0556 17.7778V2.22222C39.0556 1 38.0556 0 36.8333 0Z" fill="url(#paint0_linear_39_871)"/>
<path d="M7.70552 32.098C7.70552 32.91 7.42552 33.5867 6.86552 34.128C6.31485 34.66 5.47018 34.926 4.33152 34.926H2.45552V39H1.18152V29.242H4.33152C5.43285 29.242 6.26818 29.508 6.83752 30.04C7.41618 30.572 7.70552 31.258 7.70552 32.098ZM4.33152 33.876C5.04085 33.876 5.56352 33.722 5.89952 33.414C6.23552 33.106 6.40352 32.6673 6.40352 32.098C6.40352 30.894 5.71285 30.292 4.33152 30.292H2.45552V33.876H4.33152ZM12.6349 39.126C11.9163 39.126 11.2629 38.9627 10.6749 38.636C10.0963 38.3093 9.63894 37.8473 9.30294 37.25C8.97627 36.6433 8.81294 35.9433 8.81294 35.15C8.81294 34.366 8.98094 33.6753 9.31694 33.078C9.66227 32.4713 10.1289 32.0093 10.7169 31.692C11.3049 31.3653 11.9629 31.202 12.6909 31.202C13.4189 31.202 14.0769 31.3653 14.6649 31.692C15.2529 32.0093 15.7149 32.4667 16.0509 33.064C16.3963 33.6613 16.5689 34.3567 16.5689 35.15C16.5689 35.9433 16.3916 36.6433 16.0369 37.25C15.6916 37.8473 15.2203 38.3093 14.6229 38.636C14.0256 38.9627 13.3629 39.126 12.6349 39.126ZM12.6349 38.006C13.0923 38.006 13.5216 37.8987 13.9229 37.684C14.3243 37.4693 14.6463 37.1473 14.8889 36.718C15.1409 36.2887 15.2669 35.766 15.2669 35.15C15.2669 34.534 15.1456 34.0113 14.9029 33.582C14.6603 33.1527 14.3429 32.8353 13.9509 32.63C13.5589 32.4153 13.1343 32.308 12.6769 32.308C12.2103 32.308 11.7809 32.4153 11.3889 32.63C11.0063 32.8353 10.6983 33.1527 10.4649 33.582C10.2316 34.0113 10.1149 34.534 10.1149 35.15C10.1149 35.7753 10.2269 36.3027 10.4509 36.732C10.6843 37.1613 10.9923 37.4833 11.3749 37.698C11.7576 37.9033 12.1776 38.006 12.6349 38.006ZM19.518 32.574C19.742 32.1353 20.0593 31.7947 20.47 31.552C20.89 31.3093 21.3987 31.188 21.996 31.188V32.504H21.66C20.232 32.504 19.518 33.2787 19.518 34.828V39H18.244V31.328H19.518V32.574ZM25.0207 32.378V36.9C25.0207 37.2733 25.1 37.5393 25.2587 37.698C25.4173 37.8473 25.6927 37.922 26.0847 37.922H27.0227V39H25.8747C25.1653 39 24.6333 38.8367 24.2787 38.51C23.924 38.1833 23.7467 37.6467 23.7467 36.9V32.378H22.7527V31.328H23.7467V29.396H25.0207V31.328H27.0227V32.378H25.0207ZM31.6883 32.378H30.0783V39H28.8043V32.378H27.8103V31.328H28.8043V30.782C28.8043 29.9233 29.0236 29.298 29.4623 28.906C29.9103 28.5047 30.6243 28.304 31.6043 28.304V29.368C31.0443 29.368 30.6476 29.48 30.4143 29.704C30.1903 29.9187 30.0783 30.278 30.0783 30.782V31.328H31.6883V32.378ZM36.5197 39.126C35.801 39.126 35.1477 38.9627 34.5597 38.636C33.981 38.3093 33.5237 37.8473 33.1877 37.25C32.861 36.6433 32.6977 35.9433 32.6977 35.15C32.6977 34.366 32.8657 33.6753 33.2017 33.078C33.547 32.4713 34.0137 32.0093 34.6017 31.692C35.1897 31.3653 35.8477 31.202 36.5757 31.202C37.3037 31.202 37.9617 31.3653 38.5497 31.692C39.1377 32.0093 39.5997 32.4667 39.9357 33.064C40.281 33.6613 40.4537 34.3567 40.4537 35.15C40.4537 35.9433 40.2764 36.6433 39.9217 37.25C39.5764 37.8473 39.105 38.3093 38.5077 38.636C37.9104 38.9627 37.2477 39.126 36.5197 39.126ZM36.5197 38.006C36.977 38.006 37.4064 37.8987 37.8077 37.684C38.209 37.4693 38.531 37.1473 38.7737 36.718C39.0257 36.2887 39.1517 35.766 39.1517 35.15C39.1517 34.534 39.0304 34.0113 38.7877 33.582C38.545 33.1527 38.2277 32.8353 37.8357 32.63C37.4437 32.4153 37.019 32.308 36.5617 32.308C36.095 32.308 35.6657 32.4153 35.2737 32.63C34.891 32.8353 34.583 33.1527 34.3497 33.582C34.1164 34.0113 33.9997 34.534 33.9997 35.15C33.9997 35.7753 34.1117 36.3027 34.3357 36.732C34.569 37.1613 34.877 37.4833 35.2597 37.698C35.6424 37.9033 36.0624 38.006 36.5197 38.006ZM43.4028 28.64V39H42.1288V28.64H43.4028ZM46.2321 30.082C45.9894 30.082 45.7841 29.998 45.6161 29.83C45.4481 29.662 45.3641 29.4567 45.3641 29.214C45.3641 28.9713 45.4481 28.766 45.6161 28.598C45.7841 28.43 45.9894 28.346 46.2321 28.346C46.4654 28.346 46.6614 28.43 46.8201 28.598C46.9881 28.766 47.0721 28.9713 47.0721 29.214C47.0721 29.4567 46.9881 29.662 46.8201 29.83C46.6614 29.998 46.4654 30.082 46.2321 30.082ZM46.8481 31.328V39H45.5741V31.328H46.8481ZM52.3654 39.126C51.6467 39.126 50.9934 38.9627 50.4054 38.636C49.8267 38.3093 49.3694 37.8473 49.0334 37.25C48.7067 36.6433 48.5434 35.9433 48.5434 35.15C48.5434 34.366 48.7114 33.6753 49.0474 33.078C49.3927 32.4713 49.8594 32.0093 50.4474 31.692C51.0354 31.3653 51.6934 31.202 52.4214 31.202C53.1494 31.202 53.8074 31.3653 54.3954 31.692C54.9834 32.0093 55.4454 32.4667 55.7814 33.064C56.1267 33.6613 56.2994 34.3567 56.2994 35.15C56.2994 35.9433 56.1221 36.6433 55.7674 37.25C55.4221 37.8473 54.9507 38.3093 54.3534 38.636C53.7561 38.9627 53.0934 39.126 52.3654 39.126ZM52.3654 38.006C52.8227 38.006 53.2521 37.8987 53.6534 37.684C54.0547 37.4693 54.3767 37.1473 54.6194 36.718C54.8714 36.2887 54.9974 35.766 54.9974 35.15C54.9974 34.534 54.8761 34.0113 54.6334 33.582C54.3907 33.1527 54.0734 32.8353 53.6814 32.63C53.2894 32.4153 52.8647 32.308 52.4074 32.308C51.9407 32.308 51.5114 32.4153 51.1194 32.63C50.7367 32.8353 50.4287 33.1527 50.1954 33.582C49.9621 34.0113 49.8454 34.534 49.8454 35.15C49.8454 35.7753 49.9574 36.3027 50.1814 36.732C50.4147 37.1613 50.7227 37.4833 51.1054 37.698C51.4881 37.9033 51.9081 38.006 52.3654 38.006Z" fill="url(#paint1_linear_39_871)"/>
<defs>
<linearGradient id="paint0_linear_39_871" x1="17.9847" y1="10" x2="39.0959" y2="10" gradientUnits="userSpaceOnUse">
<stop stop-color="#E9B873"/>
<stop offset="0.369792" stop-color="#FEDD8F"/>
<stop offset="1" stop-color="#B78D51"/>
</linearGradient>
<linearGradient id="paint1_linear_39_871" x1="0.108779" y1="34.5" x2="57.1088" y2="34.5" gradientUnits="userSpaceOnUse">
<stop stop-color="#E9B873"/>
<stop offset="0.369792" stop-color="#FEDD8F"/>
<stop offset="1" stop-color="#B78D51"/>
</linearGradient>
</defs>
</svg>
