<svg width="55" height="45" viewBox="0 0 55 45" fill="none" xmlns="http://www.w3.org/2000/svg">
<mask id="path-1-inside-1_56_433" fill="white">
<path d="M35.42 10.08L27.5 18L19.58 10.08L21 8.67L26.5 14.17V0H28.5V14.17L34 8.66L35.42 10.08ZM27.5 18H17.5V20H37.5V18H27.5Z"/>
</mask>
<path d="M27.5 18L26.7929 18.7071L27.5 19.4142L28.2071 18.7071L27.5 18ZM19.58 10.08L18.8754 9.3704L18.1633 10.0775L18.8729 10.7871L19.58 10.08ZM21 8.67L21.7071 7.96289L21.0025 7.25828L20.2954 7.9604L21 8.67ZM26.5 14.17L25.7929 14.8771L27.5 16.5842V14.17H26.5ZM26.5 0V-1H25.5V0H26.5ZM28.5 0H29.5V-1H28.5V0ZM28.5 14.17H27.5V16.5873L29.2077 14.8765L28.5 14.17ZM34 8.66L34.7071 7.95289L33.9994 7.24514L33.2923 7.95354L34 8.66ZM17.5 18V17H16.5V18H17.5ZM17.5 20H16.5V21H17.5V20ZM37.5 20V21H38.5V20H37.5ZM37.5 18H38.5V17H37.5V18ZM34.7129 9.37289L26.7929 17.2929L28.2071 18.7071L36.1271 10.7871L34.7129 9.37289ZM28.2071 17.2929L20.2871 9.37289L18.8729 10.7871L26.7929 18.7071L28.2071 17.2929ZM20.2846 10.7896L21.7046 9.3796L20.2954 7.9604L18.8754 9.3704L20.2846 10.7896ZM20.2929 9.37711L25.7929 14.8771L27.2071 13.4629L21.7071 7.96289L20.2929 9.37711ZM27.5 14.17V0H25.5V14.17H27.5ZM26.5 1H28.5V-1H26.5V1ZM27.5 0V14.17H29.5V0H27.5ZM29.2077 14.8765L34.7077 9.36646L33.2923 7.95354L27.7923 13.4635L29.2077 14.8765ZM33.2929 9.36711L34.7129 10.7871L36.1271 9.37289L34.7071 7.95289L33.2929 9.36711ZM27.5 17H17.5V19H27.5V17ZM16.5 18V20H18.5V18H16.5ZM17.5 21H37.5V19H17.5V21ZM38.5 20V18H36.5V20H38.5ZM37.5 17H27.5V19H37.5V17Z" fill="#8B8682" mask="url(#path-1-inside-1_56_433)"/>
<path d="M6.53631 39L4.21231 35.01H2.67231V39H1.39831V29.242H4.54831C5.28565 29.242 5.90631 29.368 6.41031 29.62C6.92365 29.872 7.30631 30.2127 7.55831 30.642C7.81031 31.0713 7.93631 31.5613 7.93631 32.112C7.93631 32.784 7.74031 33.3767 7.34831 33.89C6.96565 34.4033 6.38698 34.744 5.61231 34.912L8.06231 39H6.53631ZM2.67231 33.988H4.54831C5.23898 33.988 5.75698 33.82 6.10231 33.484C6.44765 33.1387 6.62031 32.6813 6.62031 32.112C6.62031 31.5333 6.44765 31.0853 6.10231 30.768C5.76631 30.4507 5.24831 30.292 4.54831 30.292H2.67231V33.988ZM16.9159 34.87C16.9159 35.1127 16.9019 35.3693 16.8739 35.64H10.7419C10.7886 36.396 11.0452 36.9887 11.5119 37.418C11.9879 37.838 12.5619 38.048 13.2339 38.048C13.7846 38.048 14.2419 37.922 14.6059 37.67C14.9792 37.4087 15.2406 37.0633 15.3899 36.634H16.7619C16.5566 37.3713 16.1459 37.9733 15.5299 38.44C14.9139 38.8973 14.1486 39.126 13.2339 39.126C12.5059 39.126 11.8526 38.9627 11.2739 38.636C10.7046 38.3093 10.2566 37.8473 9.92989 37.25C9.60322 36.6433 9.43989 35.9433 9.43989 35.15C9.43989 34.3567 9.59856 33.6613 9.91589 33.064C10.2332 32.4667 10.6766 32.0093 11.2459 31.692C11.8246 31.3653 12.4872 31.202 13.2339 31.202C13.9619 31.202 14.6059 31.3607 15.1659 31.678C15.7259 31.9953 16.1552 32.434 16.4539 32.994C16.7619 33.5447 16.9159 34.17 16.9159 34.87ZM15.5999 34.604C15.5999 34.1187 15.4926 33.7033 15.2779 33.358C15.0632 33.0033 14.7692 32.7373 14.3959 32.56C14.0319 32.3733 13.6259 32.28 13.1779 32.28C12.5339 32.28 11.9832 32.4853 11.5259 32.896C11.0779 33.3067 10.8212 33.876 10.7559 34.604H15.5999ZM18.1215 35.15C18.1215 34.3567 18.2802 33.666 18.5975 33.078C18.9149 32.4807 19.3535 32.0187 19.9135 31.692C20.4829 31.3653 21.1315 31.202 21.8595 31.202C22.8022 31.202 23.5769 31.4307 24.1835 31.888C24.7995 32.3453 25.2055 32.98 25.4015 33.792H24.0295C23.8989 33.3253 23.6422 32.9567 23.2595 32.686C22.8862 32.4153 22.4195 32.28 21.8595 32.28C21.1315 32.28 20.5435 32.532 20.0955 33.036C19.6475 33.5307 19.4235 34.2353 19.4235 35.15C19.4235 36.074 19.6475 36.788 20.0955 37.292C20.5435 37.796 21.1315 38.048 21.8595 38.048C22.4195 38.048 22.8862 37.9173 23.2595 37.656C23.6329 37.3947 23.8895 37.0213 24.0295 36.536H25.4015C25.1962 37.32 24.7855 37.95 24.1695 38.426C23.5535 38.8927 22.7835 39.126 21.8595 39.126C21.1315 39.126 20.4829 38.9627 19.9135 38.636C19.3535 38.3093 18.9149 37.8473 18.5975 37.25C18.2802 36.6527 18.1215 35.9527 18.1215 35.15ZM34.1014 34.87C34.1014 35.1127 34.0874 35.3693 34.0594 35.64H27.9274C27.9741 36.396 28.2308 36.9887 28.6974 37.418C29.1734 37.838 29.7474 38.048 30.4194 38.048C30.9701 38.048 31.4274 37.922 31.7914 37.67C32.1648 37.4087 32.4261 37.0633 32.5754 36.634H33.9474C33.7421 37.3713 33.3314 37.9733 32.7154 38.44C32.0994 38.8973 31.3341 39.126 30.4194 39.126C29.6914 39.126 29.0381 38.9627 28.4594 38.636C27.8901 38.3093 27.4421 37.8473 27.1154 37.25C26.7888 36.6433 26.6254 35.9433 26.6254 35.15C26.6254 34.3567 26.7841 33.6613 27.1014 33.064C27.4188 32.4667 27.8621 32.0093 28.4314 31.692C29.0101 31.3653 29.6728 31.202 30.4194 31.202C31.1474 31.202 31.7914 31.3607 32.3514 31.678C32.9114 31.9953 33.3408 32.434 33.6394 32.994C33.9474 33.5447 34.1014 34.17 34.1014 34.87ZM32.7854 34.604C32.7854 34.1187 32.6781 33.7033 32.4634 33.358C32.2488 33.0033 31.9548 32.7373 31.5814 32.56C31.2174 32.3733 30.8114 32.28 30.3634 32.28C29.7194 32.28 29.1688 32.4853 28.7114 32.896C28.2634 33.3067 28.0068 33.876 27.9414 34.604H32.7854ZM36.4411 30.082C36.1984 30.082 35.9931 29.998 35.8251 29.83C35.6571 29.662 35.5731 29.4567 35.5731 29.214C35.5731 28.9713 35.6571 28.766 35.8251 28.598C35.9931 28.43 36.1984 28.346 36.4411 28.346C36.6744 28.346 36.8704 28.43 37.0291 28.598C37.1971 28.766 37.2811 28.9713 37.2811 29.214C37.2811 29.4567 37.1971 29.662 37.0291 29.83C36.8704 29.998 36.6744 30.082 36.4411 30.082ZM37.0571 31.328V39H35.7831V31.328H37.0571ZM42.0844 37.824L44.4644 31.328H45.8224L42.8124 39H41.3284L38.3184 31.328H39.6904L42.0844 37.824ZM54.076 34.87C54.076 35.1127 54.062 35.3693 54.034 35.64H47.902C47.9487 36.396 48.2054 36.9887 48.672 37.418C49.148 37.838 49.722 38.048 50.394 38.048C50.9447 38.048 51.402 37.922 51.766 37.67C52.1394 37.4087 52.4007 37.0633 52.55 36.634H53.922C53.7167 37.3713 53.306 37.9733 52.69 38.44C52.074 38.8973 51.3087 39.126 50.394 39.126C49.666 39.126 49.0127 38.9627 48.434 38.636C47.8647 38.3093 47.4167 37.8473 47.09 37.25C46.7634 36.6433 46.6 35.9433 46.6 35.15C46.6 34.3567 46.7587 33.6613 47.076 33.064C47.3934 32.4667 47.8367 32.0093 48.406 31.692C48.9847 31.3653 49.6474 31.202 50.394 31.202C51.122 31.202 51.766 31.3607 52.326 31.678C52.886 31.9953 53.3154 32.434 53.614 32.994C53.922 33.5447 54.076 34.17 54.076 34.87ZM52.76 34.604C52.76 34.1187 52.6527 33.7033 52.438 33.358C52.2234 33.0033 51.9294 32.7373 51.556 32.56C51.192 32.3733 50.786 32.28 50.338 32.28C49.694 32.28 49.1434 32.4853 48.686 32.896C48.238 33.3067 47.9814 33.876 47.916 34.604H52.76Z" fill="#8B8682"/>
</svg>
