<svg width="57" height="45" viewBox="0 0 57 45" fill="none" xmlns="http://www.w3.org/2000/svg">
<mask id="path-1-inside-1_56_442" fill="white">
<path d="M30.3751 20H26.6251C26.3751 20 26.1584 19.9167 25.9751 19.75C25.7918 19.5833 25.6834 19.375 25.6501 19.125L25.3501 16.8C25.1334 16.7167 24.9294 16.6167 24.7381 16.5C24.5461 16.3833 24.3584 16.2583 24.1751 16.125L22.0001 17.025C21.7668 17.1083 21.5334 17.1167 21.3001 17.05C21.0668 16.9833 20.8834 16.8417 20.7501 16.625L18.9001 13.4C18.7668 13.1833 18.7251 12.95 18.7751 12.7C18.8251 12.45 18.9501 12.25 19.1501 12.1L21.0251 10.675C21.0084 10.5583 21.0001 10.4457 21.0001 10.337V9.662C21.0001 9.554 21.0084 9.44167 21.0251 9.325L19.1501 7.9C18.9501 7.75 18.8251 7.55 18.7751 7.3C18.7251 7.05 18.7668 6.81667 18.9001 6.6L20.7501 3.375C20.8668 3.14167 21.0458 2.99567 21.2871 2.937C21.5291 2.879 21.7668 2.89167 22.0001 2.975L24.1751 3.875C24.3584 3.74167 24.5501 3.61667 24.7501 3.5C24.9501 3.38333 25.1501 3.28333 25.3501 3.2L25.6501 0.875C25.6834 0.625 25.7918 0.416667 25.9751 0.25C26.1584 0.0833333 26.3751 0 26.6251 0H30.3751C30.6251 0 30.8418 0.0833333 31.0251 0.25C31.2084 0.416667 31.3168 0.625 31.3501 0.875L31.6501 3.2C31.8668 3.28333 32.0711 3.38333 32.2631 3.5C32.4544 3.61667 32.6418 3.74167 32.8251 3.875L35.0001 2.975C35.2334 2.89167 35.4668 2.88333 35.7001 2.95C35.9334 3.01667 36.1168 3.15833 36.2501 3.375L38.1001 6.6C38.2334 6.81667 38.2751 7.05 38.2251 7.3C38.1751 7.55 38.0501 7.75 37.8501 7.9L35.9751 9.325C35.9918 9.44167 36.0001 9.554 36.0001 9.662V10.337C36.0001 10.4457 35.9834 10.5583 35.9501 10.675L37.8251 12.1C38.0251 12.25 38.1501 12.45 38.2001 12.7C38.2501 12.95 38.2084 13.1833 38.0751 13.4L36.2251 16.6C36.0918 16.8167 35.9044 16.9627 35.6631 17.038C35.4211 17.1127 35.1834 17.1083 34.9501 17.025L32.8251 16.125C32.6418 16.2583 32.4501 16.3833 32.2501 16.5C32.0501 16.6167 31.8501 16.7167 31.6501 16.8L31.3501 19.125C31.3168 19.375 31.2084 19.5833 31.0251 19.75C30.8418 19.9167 30.6251 20 30.3751 20ZM28.5501 13.5C29.5168 13.5 30.3418 13.1583 31.0251 12.475C31.7084 11.7917 32.0501 10.9667 32.0501 10C32.0501 9.03333 31.7084 8.20833 31.0251 7.525C30.3418 6.84167 29.5168 6.5 28.5501 6.5C27.5668 6.5 26.7374 6.84167 26.0621 7.525C25.3874 8.20833 25.0501 9.03333 25.0501 10C25.0501 10.9667 25.3874 11.7917 26.0621 12.475C26.7374 13.1583 27.5668 13.5 28.5501 13.5ZM28.5501 11.5C28.1334 11.5 27.7794 11.354 27.4881 11.062C27.1961 10.7707 27.0501 10.4167 27.0501 10C27.0501 9.58333 27.1961 9.22933 27.4881 8.938C27.7794 8.646 28.1334 8.5 28.5501 8.5C28.9668 8.5 29.3211 8.646 29.6131 8.938C29.9044 9.22933 30.0501 9.58333 30.0501 10C30.0501 10.4167 29.9044 10.7707 29.6131 11.062C29.3211 11.354 28.9668 11.5 28.5501 11.5ZM27.5001 18H29.4751L29.8251 15.35C30.3418 15.2167 30.8211 15.0207 31.2631 14.762C31.7044 14.504 32.1084 14.1917 32.4751 13.825L34.9501 14.85L35.9251 13.15L33.7751 11.525C33.8584 11.2917 33.9168 11.0457 33.9501 10.787C33.9834 10.529 34.0001 10.2667 34.0001 10C34.0001 9.73333 33.9834 9.47067 33.9501 9.212C33.9168 8.954 33.8584 8.70833 33.7751 8.475L35.9251 6.85L34.9501 5.15L32.4751 6.2C32.1084 5.81667 31.7044 5.49567 31.2631 5.237C30.8211 4.979 30.3418 4.78333 29.8251 4.65L29.5001 2H27.5251L27.1751 4.65C26.6584 4.78333 26.1794 4.979 25.7381 5.237C25.2961 5.49567 24.8918 5.80833 24.5251 6.175L22.0501 5.15L21.0751 6.85L23.2251 8.45C23.1418 8.7 23.0834 8.95 23.0501 9.2C23.0168 9.45 23.0001 9.71667 23.0001 10C23.0001 10.2667 23.0168 10.525 23.0501 10.775C23.0834 11.025 23.1418 11.275 23.2251 11.525L21.0751 13.15L22.0501 14.85L24.5251 13.8C24.8918 14.1833 25.2961 14.504 25.7381 14.762C26.1794 15.0207 26.6584 15.2167 27.1751 15.35L27.5001 18Z"/>
</mask>
<path d="M30.3751 20H26.6251C26.3751 20 26.1584 19.9167 25.9751 19.75C25.7918 19.5833 25.6834 19.375 25.6501 19.125L25.3501 16.8C25.1334 16.7167 24.9294 16.6167 24.7381 16.5C24.5461 16.3833 24.3584 16.2583 24.1751 16.125L22.0001 17.025C21.7668 17.1083 21.5334 17.1167 21.3001 17.05C21.0668 16.9833 20.8834 16.8417 20.7501 16.625L18.9001 13.4C18.7668 13.1833 18.7251 12.95 18.7751 12.7C18.8251 12.45 18.9501 12.25 19.1501 12.1L21.0251 10.675C21.0084 10.5583 21.0001 10.4457 21.0001 10.337V9.662C21.0001 9.554 21.0084 9.44167 21.0251 9.325L19.1501 7.9C18.9501 7.75 18.8251 7.55 18.7751 7.3C18.7251 7.05 18.7668 6.81667 18.9001 6.6L20.7501 3.375C20.8668 3.14167 21.0458 2.99567 21.2871 2.937C21.5291 2.879 21.7668 2.89167 22.0001 2.975L24.1751 3.875C24.3584 3.74167 24.5501 3.61667 24.7501 3.5C24.9501 3.38333 25.1501 3.28333 25.3501 3.2L25.6501 0.875C25.6834 0.625 25.7918 0.416667 25.9751 0.25C26.1584 0.0833333 26.3751 0 26.6251 0H30.3751C30.6251 0 30.8418 0.0833333 31.0251 0.25C31.2084 0.416667 31.3168 0.625 31.3501 0.875L31.6501 3.2C31.8668 3.28333 32.0711 3.38333 32.2631 3.5C32.4544 3.61667 32.6418 3.74167 32.8251 3.875L35.0001 2.975C35.2334 2.89167 35.4668 2.88333 35.7001 2.95C35.9334 3.01667 36.1168 3.15833 36.2501 3.375L38.1001 6.6C38.2334 6.81667 38.2751 7.05 38.2251 7.3C38.1751 7.55 38.0501 7.75 37.8501 7.9L35.9751 9.325C35.9918 9.44167 36.0001 9.554 36.0001 9.662V10.337C36.0001 10.4457 35.9834 10.5583 35.9501 10.675L37.8251 12.1C38.0251 12.25 38.1501 12.45 38.2001 12.7C38.2501 12.95 38.2084 13.1833 38.0751 13.4L36.2251 16.6C36.0918 16.8167 35.9044 16.9627 35.6631 17.038C35.4211 17.1127 35.1834 17.1083 34.9501 17.025L32.8251 16.125C32.6418 16.2583 32.4501 16.3833 32.2501 16.5C32.0501 16.6167 31.8501 16.7167 31.6501 16.8L31.3501 19.125C31.3168 19.375 31.2084 19.5833 31.0251 19.75C30.8418 19.9167 30.6251 20 30.3751 20ZM28.5501 13.5C29.5168 13.5 30.3418 13.1583 31.0251 12.475C31.7084 11.7917 32.0501 10.9667 32.0501 10C32.0501 9.03333 31.7084 8.20833 31.0251 7.525C30.3418 6.84167 29.5168 6.5 28.5501 6.5C27.5668 6.5 26.7374 6.84167 26.0621 7.525C25.3874 8.20833 25.0501 9.03333 25.0501 10C25.0501 10.9667 25.3874 11.7917 26.0621 12.475C26.7374 13.1583 27.5668 13.5 28.5501 13.5ZM28.5501 11.5C28.1334 11.5 27.7794 11.354 27.4881 11.062C27.1961 10.7707 27.0501 10.4167 27.0501 10C27.0501 9.58333 27.1961 9.22933 27.4881 8.938C27.7794 8.646 28.1334 8.5 28.5501 8.5C28.9668 8.5 29.3211 8.646 29.6131 8.938C29.9044 9.22933 30.0501 9.58333 30.0501 10C30.0501 10.4167 29.9044 10.7707 29.6131 11.062C29.3211 11.354 28.9668 11.5 28.5501 11.5ZM27.5001 18H29.4751L29.8251 15.35C30.3418 15.2167 30.8211 15.0207 31.2631 14.762C31.7044 14.504 32.1084 14.1917 32.4751 13.825L34.9501 14.85L35.9251 13.15L33.7751 11.525C33.8584 11.2917 33.9168 11.0457 33.9501 10.787C33.9834 10.529 34.0001 10.2667 34.0001 10C34.0001 9.73333 33.9834 9.47067 33.9501 9.212C33.9168 8.954 33.8584 8.70833 33.7751 8.475L35.9251 6.85L34.9501 5.15L32.4751 6.2C32.1084 5.81667 31.7044 5.49567 31.2631 5.237C30.8211 4.979 30.3418 4.78333 29.8251 4.65L29.5001 2H27.5251L27.1751 4.65C26.6584 4.78333 26.1794 4.979 25.7381 5.237C25.2961 5.49567 24.8918 5.80833 24.5251 6.175L22.0501 5.15L21.0751 6.85L23.2251 8.45C23.1418 8.7 23.0834 8.95 23.0501 9.2C23.0168 9.45 23.0001 9.71667 23.0001 10C23.0001 10.2667 23.0168 10.525 23.0501 10.775C23.0834 11.025 23.1418 11.275 23.2251 11.525L21.0751 13.15L22.0501 14.85L24.5251 13.8C24.8918 14.1833 25.2961 14.504 25.7381 14.762C26.1794 15.0207 26.6584 15.2167 27.1751 15.35L27.5001 18Z" stroke="#8B8682" stroke-width="2" mask="url(#path-1-inside-1_56_442)"/>
<path d="M4.53528 39.098C3.89128 39.098 3.31261 38.986 2.79928 38.762C2.29528 38.5287 1.89861 38.2113 1.60928 37.81C1.31995 37.3993 1.17061 36.928 1.16128 36.396H2.51928C2.56595 36.8533 2.75261 37.2407 3.07928 37.558C3.41528 37.866 3.90061 38.02 4.53528 38.02C5.14195 38.02 5.61795 37.8707 5.96328 37.572C6.31795 37.264 6.49528 36.872 6.49528 36.396C6.49528 36.0227 6.39261 35.7193 6.18728 35.486C5.98195 35.2527 5.72528 35.0753 5.41728 34.954C5.10928 34.8327 4.69395 34.702 4.17128 34.562C3.52728 34.394 3.00928 34.226 2.61728 34.058C2.23461 33.89 1.90328 33.6287 1.62328 33.274C1.35261 32.91 1.21728 32.4247 1.21728 31.818C1.21728 31.286 1.35261 30.8147 1.62328 30.404C1.89395 29.9933 2.27195 29.676 2.75728 29.452C3.25195 29.228 3.81661 29.116 4.45128 29.116C5.36595 29.116 6.11261 29.3447 6.69128 29.802C7.27928 30.2593 7.61062 30.866 7.68528 31.622H6.28528C6.23861 31.2487 6.04261 30.922 5.69728 30.642C5.35195 30.3527 4.89461 30.208 4.32528 30.208C3.79328 30.208 3.35928 30.348 3.02328 30.628C2.68728 30.8987 2.51928 31.2813 2.51928 31.776C2.51928 32.1307 2.61728 32.42 2.81328 32.644C3.01861 32.868 3.26595 33.0407 3.55528 33.162C3.85395 33.274 4.26928 33.4047 4.80128 33.554C5.44528 33.7313 5.96328 33.9087 6.35528 34.086C6.74728 34.254 7.08328 34.52 7.36328 34.884C7.64328 35.2387 7.78328 35.724 7.78328 36.34C7.78328 36.816 7.65728 37.264 7.40528 37.684C7.15328 38.104 6.77995 38.4447 6.28528 38.706C5.79061 38.9673 5.20728 39.098 4.53528 39.098ZM16.6581 34.87C16.6581 35.1127 16.6441 35.3693 16.6161 35.64H10.4841C10.5307 36.396 10.7874 36.9887 11.2541 37.418C11.7301 37.838 12.3041 38.048 12.9761 38.048C13.5267 38.048 13.9841 37.922 14.3481 37.67C14.7214 37.4087 14.9827 37.0633 15.1321 36.634H16.5041C16.2987 37.3713 15.8881 37.9733 15.2721 38.44C14.6561 38.8973 13.8907 39.126 12.9761 39.126C12.2481 39.126 11.5947 38.9627 11.0161 38.636C10.4467 38.3093 9.99874 37.8473 9.67208 37.25C9.34541 36.6433 9.18208 35.9433 9.18208 35.15C9.18208 34.3567 9.34074 33.6613 9.65808 33.064C9.97541 32.4667 10.4187 32.0093 10.9881 31.692C11.5667 31.3653 12.2294 31.202 12.9761 31.202C13.7041 31.202 14.3481 31.3607 14.9081 31.678C15.4681 31.9953 15.8974 32.434 16.1961 32.994C16.5041 33.5447 16.6581 34.17 16.6581 34.87ZM15.3421 34.604C15.3421 34.1187 15.2347 33.7033 15.0201 33.358C14.8054 33.0033 14.5114 32.7373 14.1381 32.56C13.7741 32.3733 13.3681 32.28 12.9201 32.28C12.2761 32.28 11.7254 32.4853 11.2681 32.896C10.8201 33.3067 10.5634 33.876 10.4981 34.604H15.3421ZM19.8937 32.378V36.9C19.8937 37.2733 19.9731 37.5393 20.1317 37.698C20.2904 37.8473 20.5657 37.922 20.9577 37.922H21.8957V39H20.7477C20.0384 39 19.5064 38.8367 19.1517 38.51C18.7971 38.1833 18.6197 37.6467 18.6197 36.9V32.378H17.6257V31.328H18.6197V29.396H19.8937V31.328H21.8957V32.378H19.8937ZM24.9933 32.378V36.9C24.9933 37.2733 25.0727 37.5393 25.2313 37.698C25.39 37.8473 25.6653 37.922 26.0573 37.922H26.9953V39H25.8473C25.138 39 24.606 38.8367 24.2513 38.51C23.8967 38.1833 23.7193 37.6467 23.7193 36.9V32.378H22.7253V31.328H23.7193V29.396H24.9933V31.328H26.9953V32.378H24.9933ZM29.1969 30.082C28.9543 30.082 28.7489 29.998 28.5809 29.83C28.4129 29.662 28.3289 29.4567 28.3289 29.214C28.3289 28.9713 28.4129 28.766 28.5809 28.598C28.7489 28.43 28.9543 28.346 29.1969 28.346C29.4303 28.346 29.6263 28.43 29.7849 28.598C29.9529 28.766 30.0369 28.9713 30.0369 29.214C30.0369 29.4567 29.9529 29.662 29.7849 29.83C29.6263 29.998 29.4303 30.082 29.1969 30.082ZM29.8129 31.328V39H28.5389V31.328H29.8129ZM35.7223 31.188C36.6556 31.188 37.4116 31.4727 37.9903 32.042C38.5689 32.602 38.8583 33.414 38.8583 34.478V39H37.5983V34.66C37.5983 33.8947 37.4069 33.3113 37.0243 32.91C36.6416 32.4993 36.1189 32.294 35.4563 32.294C34.7843 32.294 34.2476 32.504 33.8463 32.924C33.4543 33.344 33.2583 33.9553 33.2583 34.758V39H31.9843V31.328H33.2583V32.42C33.5103 32.028 33.8509 31.7247 34.2803 31.51C34.7189 31.2953 35.1996 31.188 35.7223 31.188ZM44.1033 31.202C44.766 31.202 45.3447 31.3467 45.8393 31.636C46.3433 31.9253 46.7167 32.2893 46.9593 32.728V31.328H48.2473V39.168C48.2473 39.868 48.098 40.4887 47.7993 41.03C47.5007 41.5807 47.0713 42.01 46.5113 42.318C45.9607 42.626 45.3167 42.78 44.5793 42.78C43.5713 42.78 42.7313 42.542 42.0593 42.066C41.3873 41.59 40.9907 40.9413 40.8693 40.12H42.1293C42.2693 40.5867 42.5587 40.96 42.9973 41.24C43.436 41.5293 43.9633 41.674 44.5793 41.674C45.2793 41.674 45.8487 41.4547 46.2873 41.016C46.7353 40.5773 46.9593 39.9613 46.9593 39.168V37.558C46.7073 38.006 46.334 38.3793 45.8393 38.678C45.3447 38.9767 44.766 39.126 44.1033 39.126C43.422 39.126 42.8013 38.958 42.2413 38.622C41.6907 38.286 41.2567 37.8147 40.9393 37.208C40.622 36.6013 40.4633 35.9107 40.4633 35.136C40.4633 34.352 40.622 33.666 40.9393 33.078C41.2567 32.4807 41.6907 32.0187 42.2413 31.692C42.8013 31.3653 43.422 31.202 44.1033 31.202ZM46.9593 35.15C46.9593 34.5713 46.8427 34.0673 46.6093 33.638C46.376 33.2087 46.0587 32.882 45.6573 32.658C45.2653 32.4247 44.8313 32.308 44.3553 32.308C43.8793 32.308 43.4453 32.42 43.0533 32.644C42.6613 32.868 42.3487 33.1947 42.1153 33.624C41.882 34.0533 41.7653 34.5573 41.7653 35.136C41.7653 35.724 41.882 36.2373 42.1153 36.676C42.3487 37.1053 42.6613 37.4367 43.0533 37.67C43.4453 37.894 43.8793 38.006 44.3553 38.006C44.8313 38.006 45.2653 37.894 45.6573 37.67C46.0587 37.4367 46.376 37.1053 46.6093 36.676C46.8427 36.2373 46.9593 35.7287 46.9593 35.15ZM53.1163 39.126C52.5283 39.126 52.0009 39.028 51.5343 38.832C51.0676 38.6267 50.6989 38.3467 50.4283 37.992C50.1576 37.628 50.0083 37.2127 49.9803 36.746H51.2963C51.3336 37.1287 51.5109 37.4413 51.8283 37.684C52.1549 37.9267 52.5796 38.048 53.1023 38.048C53.5876 38.048 53.9703 37.9407 54.2503 37.726C54.5303 37.5113 54.6703 37.2407 54.6703 36.914C54.6703 36.578 54.5209 36.3307 54.2223 36.172C53.9236 36.004 53.4616 35.8407 52.8363 35.682C52.2669 35.5327 51.8003 35.3833 51.4363 35.234C51.0816 35.0753 50.7736 34.8467 50.5123 34.548C50.2603 34.24 50.1343 33.8387 50.1343 33.344C50.1343 32.952 50.2509 32.5927 50.4843 32.266C50.7176 31.9393 51.0489 31.6827 51.4783 31.496C51.9076 31.3 52.3976 31.202 52.9483 31.202C53.7976 31.202 54.4836 31.4167 55.0063 31.846C55.5289 32.2753 55.8089 32.8633 55.8463 33.61H54.5723C54.5443 33.2087 54.3809 32.8867 54.0823 32.644C53.7929 32.4013 53.4009 32.28 52.9063 32.28C52.4489 32.28 52.0849 32.378 51.8143 32.574C51.5436 32.77 51.4083 33.0267 51.4083 33.344C51.4083 33.596 51.4876 33.806 51.6463 33.974C51.8143 34.1327 52.0196 34.2633 52.2623 34.366C52.5143 34.4593 52.8596 34.5667 53.2983 34.688C53.8489 34.8373 54.2969 34.9867 54.6423 35.136C54.9876 35.276 55.2816 35.4907 55.5243 35.78C55.7763 36.0693 55.9069 36.4473 55.9163 36.914C55.9163 37.334 55.7996 37.712 55.5663 38.048C55.3329 38.384 55.0016 38.65 54.5723 38.846C54.1523 39.0327 53.6669 39.126 53.1163 39.126Z" fill="#8B8682"/>
</svg>
