<svg width="15" height="16" viewBox="0 0 15 16" fill="none" xmlns="http://www.w3.org/2000/svg">
<g clip-path="url(#clip0_39_763)">
<path d="M3.94213 7.00003C3.77581 7.00003 3.64926 6.92599 3.56248 6.77789C3.4757 6.6295 3.47932 6.48299 3.57333 6.33836L7.1312 0.643596C7.21797 0.506199 7.34091 0.4375 7.5 0.4375C7.65909 0.4375 7.78203 0.506199 7.8688 0.643596L11.4267 6.33836C11.5207 6.48299 11.5243 6.6295 11.4375 6.77789C11.3507 6.92599 11.2242 7.00003 11.0579 7.00003H3.94213Z" fill="white"/>
<path d="M11.0579 8.99997C11.2242 8.99997 11.3507 9.07401 11.4375 9.22211C11.5243 9.3705 11.5207 9.51701 11.4267 9.66164L7.8688 15.3564C7.78203 15.4938 7.65909 15.5625 7.5 15.5625C7.34091 15.5625 7.21797 15.4938 7.1312 15.3564L3.57333 9.66164C3.47932 9.51701 3.4757 9.3705 3.56248 9.22212C3.64926 9.07402 3.77581 8.99997 3.94213 8.99997L11.0579 8.99997Z" fill="white"/>
</g>
<defs>
<clipPath id="clip0_39_763">
<rect width="15" height="15" fill="white" transform="translate(0 0.5)"/>
</clipPath>
</defs>
</svg>
