<svg width="18" height="20" viewBox="0 0 18 20" fill="none" xmlns="http://www.w3.org/2000/svg">
<g clip-path="url(#clip0_39_699)">
<path fill-rule="evenodd" clip-rule="evenodd" d="M15.1222 9.33333V14.2857L17.0111 16.1905V17.1429H0.0111084V16.1905L1.9 14.2857V8.57143C1.9 5.61905 3.78889 3.04762 6.62222 2.19048V1.90476C6.62222 0.857143 7.47222 0 8.51111 0C9.07778 0 9.64444 0.285714 9.92777 0.666667C9.17222 1.52381 8.60555 2.57143 8.51111 3.80952C5.86666 3.80952 3.78889 5.90476 3.78889 8.57143V15.2381H13.2333V9.52381H13.7056C14.1778 9.52381 14.65 9.42857 15.1222 9.33333ZM8.51111 20C7.47222 20 6.62222 19.1429 6.62222 18.0952H10.4C10.4 19.1429 9.55 20 8.51111 20Z" fill="#8B8682"/>
<path d="M17.0111 4.28571C17.0111 6.09524 15.5 7.61905 13.7056 7.61905C11.9111 7.61905 10.4 6.09524 10.4 4.28571C10.4 2.47619 11.9111 0.952381 13.7056 0.952381C15.5 0.952381 17.0111 2.47619 17.0111 4.28571Z" fill="#FF624C"/>
</g>
<defs>
<clipPath id="clip0_39_699">
<rect width="17" height="20" fill="white" transform="translate(0.0111084)"/>
</clipPath>
</defs>
</svg>
