<svg width="15" height="12" viewBox="0 0 15 12" fill="none" xmlns="http://www.w3.org/2000/svg">
<path d="M12.6429 6.85714H8.35714V11.1429C8.35714 11.3702 8.26684 11.5882 8.10609 11.7489C7.94535 11.9097 7.72733 12 7.5 12C7.27267 12 7.05465 11.9097 6.89391 11.7489C6.73316 11.5882 6.64286 11.3702 6.64286 11.1429V6.85714H2.35714C2.12981 6.85714 1.9118 6.76684 1.75105 6.60609C1.59031 6.44535 1.5 6.22733 1.5 6C1.5 5.77267 1.59031 5.55465 1.75105 5.39391C1.9118 5.23316 2.12981 5.14286 2.35714 5.14286H6.64286V0.857143C6.64286 0.629814 6.73316 0.411797 6.89391 0.251051C7.05465 0.0903056 7.27267 0 7.5 0C7.72733 0 7.94535 0.0903056 8.10609 0.251051C8.26684 0.411797 8.35714 0.629814 8.35714 0.857143V5.14286H12.6429C12.8702 5.14286 13.0882 5.23316 13.249 5.39391C13.4097 5.55465 13.5 5.77267 13.5 6C13.5 6.22733 13.4097 6.44535 13.249 6.60609C13.0882 6.76684 12.8702 6.85714 12.6429 6.85714V6.85714Z" fill="#51C61A"/>
</svg>
