<svg width="22" height="22" viewBox="0 0 22 22" fill="none" xmlns="http://www.w3.org/2000/svg">
<path d="M5.45309 1H2.1216C1.50829 1 1.01111 1.49719 1.01111 2.11049V5.44198C1.01111 6.05529 1.50829 6.55247 2.1216 6.55247H5.45309C6.06639 6.55247 6.56358 6.05529 6.56358 5.44198V2.11049C6.56358 1.49719 6.06639 1 5.45309 1Z" stroke="#8B8682" stroke-width="1.66667" stroke-linecap="round" stroke-linejoin="round"/>
<path d="M19.8897 1H16.5582C15.9449 1 15.4477 1.49719 15.4477 2.11049V5.44198C15.4477 6.05529 15.9449 6.55247 16.5582 6.55247H19.8897C20.503 6.55247 21.0002 6.05529 21.0002 5.44198V2.11049C21.0002 1.49719 20.503 1 19.8897 1Z" stroke="#8B8682" stroke-width="1.66667" stroke-linecap="round" stroke-linejoin="round"/>
<path d="M5.45309 15.4364H2.1216C1.50829 15.4364 1.01111 15.9336 1.01111 16.5469V19.8784C1.01111 20.4917 1.50829 20.9889 2.1216 20.9889H5.45309C6.06639 20.9889 6.56358 20.4917 6.56358 19.8784V16.5469C6.56358 15.9336 6.06639 15.4364 5.45309 15.4364Z" stroke="#8B8682" stroke-width="1.66667" stroke-linecap="round" stroke-linejoin="round"/>
<path d="M21 15.4364H17.6685C17.0795 15.4364 16.5146 15.6704 16.098 16.0869C15.6815 16.5035 15.4475 17.0684 15.4475 17.6574V20.9889M21 20.9889V21M11.0056 5.44198V8.77346C11.0056 9.3625 10.7716 9.92742 10.355 10.3439C9.93853 10.7605 9.37361 10.9944 8.78457 10.9944H5.45308M1.01111 10.9944H1.02221M11.0056 1H11.0167M11.0056 15.4364V15.4475M15.4475 10.9944H16.558M21 10.9944V11.0056M11.0056 20.9889V19.8784" stroke="#8B8682" stroke-width="1.66667" stroke-linecap="round" stroke-linejoin="round"/>
</svg>
